<?xml version="1.0" encoding="utf-8"?>
<!-- Generator: Adobe Illustrator 19.0.0, SVG Export Plug-In . SVG Version: 6.00 Build 0)  -->
<svg version="1.1" id="Layer_1" xmlns="http://www.w3.org/2000/svg" xmlns:xlink="http://www.w3.org/1999/xlink" x="0px" y="0px"
	 viewBox="262 413.7 304.3 281.5" style="enable-background:new 262 413.7 304.3 281.5;" xml:space="preserve">
<style type="text/css">
	.st0{opacity:0.8;}
	.st1{fill:#D0D8E9;}
	.st2{fill:#AFBCD6;}
</style>
<g id="XMLID_15_" class="st0">
	<g id="XMLID_32_">
		<path id="XMLID_33_" class="st1" d="M384.5,695.2l-0.3-0.2L262,624.7V484.1l0.3-0.1l122.2-70.3l122.4,70.4v140.8l-0.3,0.1
			L384.5,695.2z M263.2,624.2l121.3,69.7l121.3-69.7V484.7l-121.3-69.9l-121.3,69.9V624.2z"/>
	</g>
	<g id="XMLID_28_">
		<path id="XMLID_29_" class="st1" d="M384.5,625.2l-0.2-0.1l-61.2-35.2v-70.7l61.5-35.3l61.5,35.3v70.7L384.5,625.2z M324,589.1
			l60.4,34.8l60.4-34.8v-69.4l-60.3-34.8L324,519.7V589.1z"/>
	</g>
	<g id="XMLID_26_">
		
			<rect id="XMLID_27_" x="440.7" y="606.5" transform="matrix(-0.8669 -0.4985 0.4985 -0.8669 585.7166 1370.4628)" class="st1" width="70.3" height="1.1"/>
	</g>
	<g id="XMLID_24_">
		
			<rect id="XMLID_25_" x="292.6" y="571.8" transform="matrix(-0.498 -0.8672 0.8672 -0.498 -87.2492 1163.4758)" class="st1" width="1.1" height="70.3"/>
	</g>
	<g id="XMLID_22_">
		
			<rect id="XMLID_23_" x="475.3" y="466.4" transform="matrix(-0.498 -0.8672 0.8672 -0.498 277.8105 1163.9503)" class="st1" width="1.1" height="70.3"/>
	</g>
	<g id="XMLID_20_">
		
			<rect id="XMLID_21_" x="257.9" y="501.1" transform="matrix(-0.8669 -0.4985 0.4985 -0.8669 296.9601 1082.5968)" class="st1" width="70.3" height="1.1"/>
	</g>
	<g id="XMLID_18_">
		<rect id="XMLID_19_" x="384" y="624.8" class="st1" width="1.1" height="69.6"/>
	</g>
	<g id="XMLID_16_">
		<rect id="XMLID_17_" x="384" y="414.7" class="st1" width="1.1" height="69.6"/>
	</g>
</g>
<g id="XMLID_84_">
	<g id="XMLID_87_">
		<path id="XMLID_88_" class="st2" d="M560.4,627c0.3,0,0.5-0.2,0.5-0.5v-10.7c0-0.3-0.2-0.5-0.5-0.5c-0.3,0-0.5,0.2-0.5,0.5v10.7
			C559.9,626.8,560.1,627,560.4,627z"/>
	</g>
	<g id="XMLID_85_">
		<path id="XMLID_86_" class="st2" d="M555.1,621.6h10.7c0.3,0,0.5-0.2,0.5-0.5s-0.2-0.5-0.5-0.5h-10.7c-0.3,0-0.5,0.2-0.5,0.5
			S554.7,621.6,555.1,621.6z"/>
	</g>
</g>
<g id="XMLID_69_">
	<g id="XMLID_72_">
		<path id="XMLID_73_" class="st2" d="M313,559.8c0.3,0,0.5-0.2,0.5-0.5v-10.7c0-0.3-0.2-0.5-0.5-0.5s-0.5,0.2-0.5,0.5v10.7
			C312.5,559.6,312.8,559.8,313,559.8z"/>
	</g>
	<g id="XMLID_70_">
		<path id="XMLID_71_" class="st2" d="M307.6,554.4h10.7c0.3,0,0.5-0.2,0.5-0.5s-0.2-0.5-0.5-0.5h-10.7c-0.3,0-0.5,0.2-0.5,0.5
			S307.4,554.4,307.6,554.4z"/>
	</g>
</g>
<g id="XMLID_64_">
	<g id="XMLID_67_">
		<path id="XMLID_68_" class="st2" d="M291.6,461.4c0.3,0,0.5-0.2,0.5-0.5v-10.7c0-0.3-0.2-0.5-0.5-0.5c-0.3,0-0.5,0.2-0.5,0.5v10.7
			C291.2,461.2,291.4,461.4,291.6,461.4z"/>
	</g>
	<g id="XMLID_65_">
		<path id="XMLID_66_" class="st2" d="M286.2,456h10.7c0.3,0,0.5-0.2,0.5-0.5s-0.2-0.5-0.5-0.5h-10.7c-0.3,0-0.5,0.2-0.5,0.5
			S286,456,286.2,456z"/>
	</g>
</g>
<g id="XMLID_59_">
	<g id="XMLID_62_">
		<path id="XMLID_63_" class="st2" d="M531.5,647.3c0.3,0,0.5-0.2,0.5-0.5v-21.4c0-0.3-0.2-0.5-0.5-0.5s-0.5,0.2-0.5,0.5v21.4
			C531,647.1,531.2,647.3,531.5,647.3z"/>
	</g>
	<g id="XMLID_60_">
		<path id="XMLID_61_" class="st2" d="M520.8,636.6h21.4c0.3,0,0.5-0.2,0.5-0.5s-0.2-0.5-0.5-0.5h-21.4c-0.3,0-0.5,0.2-0.5,0.5
			S520.5,636.6,520.8,636.6z"/>
	</g>
</g>
</svg>
